<?xml version="1.0" encoding="UTF-8" standalone="no"?>
<!-- Created with Inkscape (http://www.inkscape.org/) -->

<svg
   xmlns:dc="http://purl.org/dc/elements/1.1/"
   xmlns:cc="http://creativecommons.org/ns#"
   xmlns:rdf="http://www.w3.org/1999/02/22-rdf-syntax-ns#"
   xmlns:svg="http://www.w3.org/2000/svg"
   xmlns="http://www.w3.org/2000/svg"
   xmlns:sodipodi="http://sodipodi.sourceforge.net/DTD/sodipodi-0.dtd"
   xmlns:inkscape="http://www.inkscape.org/namespaces/inkscape"
   width="744.09448819"
   height="1052.3622047"
   id="svg4788"
   version="1.1"
   inkscape:version="0.48.4 r9939"
   sodipodi:docname="bagging.svg"
   inkscape:export-filename="D:\Dropbox\tesina\img\modelos\cnc\bagging.png"
   inkscape:export-xdpi="418"
   inkscape:export-ydpi="418">
  <defs
     id="defs4790">
    <marker
       inkscape:stockid="Arrow1Lend"
       orient="auto"
       refY="0"
       refX="0"
       id="Arrow1Lend"
       style="overflow:visible">
      <path
         inkscape:connector-curvature="0"
         id="path4127"
         d="M 0,0 5,-5 -12.5,0 5,5 0,0 z"
         style="fill-rule:evenodd;stroke:#000000;stroke-width:1pt"
         transform="matrix(-0.8,0,0,-0.8,-10,0)" />
    </marker>
    <marker
       inkscape:stockid="Arrow1Lend"
       orient="auto"
       refY="0"
       refX="0"
       id="Arrow1Lend-8"
       style="overflow:visible">
      <path
         inkscape:connector-curvature="0"
         id="path4127-6"
         d="M 0,0 5,-5 -12.5,0 5,5 0,0 z"
         style="fill-rule:evenodd;stroke:#000000;stroke-width:1pt"
         transform="matrix(-0.8,0,0,-0.8,-10,0)" />
    </marker>
    <marker
       inkscape:stockid="Arrow1Lend"
       orient="auto"
       refY="0"
       refX="0"
       id="Arrow1Lend-5"
       style="overflow:visible">
      <path
         inkscape:connector-curvature="0"
         id="path4127-0"
         d="M 0,0 5,-5 -12.5,0 5,5 0,0 z"
         style="fill-rule:evenodd;stroke:#000000;stroke-width:1pt"
         transform="matrix(-0.8,0,0,-0.8,-10,0)" />
    </marker>
    <marker
       inkscape:stockid="Arrow1Lend"
       orient="auto"
       refY="0"
       refX="0"
       id="Arrow1Lend-0"
       style="overflow:visible">
      <path
         inkscape:connector-curvature="0"
         id="path4127-06"
         d="M 0,0 5,-5 -12.5,0 5,5 0,0 z"
         style="fill-rule:evenodd;stroke:#000000;stroke-width:1pt"
         transform="matrix(-0.8,0,0,-0.8,-10,0)" />
    </marker>
    <marker
       inkscape:stockid="Arrow1Lend"
       orient="auto"
       refY="0"
       refX="0"
       id="Arrow1Lend-3"
       style="overflow:visible">
      <path
         inkscape:connector-curvature="0"
         id="path4127-8"
         d="M 0,0 5,-5 -12.5,0 5,5 0,0 z"
         style="fill-rule:evenodd;stroke:#000000;stroke-width:1pt"
         transform="matrix(-0.8,0,0,-0.8,-10,0)" />
    </marker>
    <marker
       inkscape:stockid="Arrow1Lend"
       orient="auto"
       refY="0"
       refX="0"
       id="Arrow1Lend-34"
       style="overflow:visible">
      <path
         inkscape:connector-curvature="0"
         id="path4127-4"
         d="M 0,0 5,-5 -12.5,0 5,5 0,0 z"
         style="fill-rule:evenodd;stroke:#000000;stroke-width:1pt"
         transform="matrix(-0.8,0,0,-0.8,-10,0)" />
    </marker>
    <marker
       inkscape:stockid="Arrow1Lend"
       orient="auto"
       refY="0"
       refX="0"
       id="Arrow1Lend-06"
       style="overflow:visible">
      <path
         inkscape:connector-curvature="0"
         id="path4127-61"
         d="M 0,0 5,-5 -12.5,0 5,5 0,0 z"
         style="fill-rule:evenodd;stroke:#000000;stroke-width:1pt"
         transform="matrix(-0.8,0,0,-0.8,-10,0)" />
    </marker>
    <marker
       inkscape:stockid="Arrow1Lend"
       orient="auto"
       refY="0"
       refX="0"
       id="Arrow1Lend-4"
       style="overflow:visible">
      <path
         inkscape:connector-curvature="0"
         id="path4127-9"
         d="M 0,0 5,-5 -12.5,0 5,5 0,0 z"
         style="fill-rule:evenodd;stroke:#000000;stroke-width:1pt"
         transform="matrix(-0.8,0,0,-0.8,-10,0)" />
    </marker>
    <marker
       inkscape:stockid="Arrow1Lend"
       orient="auto"
       refY="0"
       refX="0"
       id="Arrow1Lend-1"
       style="overflow:visible">
      <path
         inkscape:connector-curvature="0"
         id="path4127-7"
         d="M 0,0 5,-5 -12.5,0 5,5 0,0 z"
         style="fill-rule:evenodd;stroke:#000000;stroke-width:1pt"
         transform="matrix(-0.8,0,0,-0.8,-10,0)" />
    </marker>
    <marker
       inkscape:stockid="Arrow1Lend"
       orient="auto"
       refY="0"
       refX="0"
       id="marker3983"
       style="overflow:visible">
      <path
         inkscape:connector-curvature="0"
         id="path3985"
         d="M 0,0 5,-5 -12.5,0 5,5 0,0 z"
         style="fill-rule:evenodd;stroke:#000000;stroke-width:1pt"
         transform="matrix(-0.8,0,0,-0.8,-10,0)" />
    </marker>
    <marker
       inkscape:stockid="Arrow1Lend"
       orient="auto"
       refY="0"
       refX="0"
       id="marker3987"
       style="overflow:visible">
      <path
         inkscape:connector-curvature="0"
         id="path3989"
         d="M 0,0 5,-5 -12.5,0 5,5 0,0 z"
         style="fill-rule:evenodd;stroke:#000000;stroke-width:1pt"
         transform="matrix(-0.8,0,0,-0.8,-10,0)" />
    </marker>
    <marker
       inkscape:stockid="Arrow1Lend"
       orient="auto"
       refY="0"
       refX="0"
       id="marker3991"
       style="overflow:visible">
      <path
         inkscape:connector-curvature="0"
         id="path3993"
         d="M 0,0 5,-5 -12.5,0 5,5 0,0 z"
         style="fill-rule:evenodd;stroke:#000000;stroke-width:1pt"
         transform="matrix(-0.8,0,0,-0.8,-10,0)" />
    </marker>
    <marker
       inkscape:stockid="Arrow1Lend"
       orient="auto"
       refY="0"
       refX="0"
       id="marker3995"
       style="overflow:visible">
      <path
         inkscape:connector-curvature="0"
         id="path3997"
         d="M 0,0 5,-5 -12.5,0 5,5 0,0 z"
         style="fill-rule:evenodd;stroke:#000000;stroke-width:1pt"
         transform="matrix(-0.8,0,0,-0.8,-10,0)" />
    </marker>
    <marker
       inkscape:stockid="Arrow1Lend"
       orient="auto"
       refY="0"
       refX="0"
       id="marker3999"
       style="overflow:visible">
      <path
         inkscape:connector-curvature="0"
         id="path4001"
         d="M 0,0 5,-5 -12.5,0 5,5 0,0 z"
         style="fill-rule:evenodd;stroke:#000000;stroke-width:1pt"
         transform="matrix(-0.8,0,0,-0.8,-10,0)" />
    </marker>
    <marker
       inkscape:stockid="Arrow1Lend"
       orient="auto"
       refY="0"
       refX="0"
       id="marker4003"
       style="overflow:visible">
      <path
         inkscape:connector-curvature="0"
         id="path4005"
         d="M 0,0 5,-5 -12.5,0 5,5 0,0 z"
         style="fill-rule:evenodd;stroke:#000000;stroke-width:1pt"
         transform="matrix(-0.8,0,0,-0.8,-10,0)" />
    </marker>
    <marker
       inkscape:stockid="Arrow1Lend"
       orient="auto"
       refY="0"
       refX="0"
       id="marker4007"
       style="overflow:visible">
      <path
         inkscape:connector-curvature="0"
         id="path4009"
         d="M 0,0 5,-5 -12.5,0 5,5 0,0 z"
         style="fill-rule:evenodd;stroke:#000000;stroke-width:1pt"
         transform="matrix(-0.8,0,0,-0.8,-10,0)" />
    </marker>
    <marker
       inkscape:stockid="Arrow1Lend"
       orient="auto"
       refY="0"
       refX="0"
       id="Arrow1Lend-17"
       style="overflow:visible">
      <path
         inkscape:connector-curvature="0"
         id="path4127-40"
         d="M 0,0 5,-5 -12.5,0 5,5 0,0 z"
         style="fill-rule:evenodd;stroke:#000000;stroke-width:1pt"
         transform="matrix(-0.8,0,0,-0.8,-10,0)" />
    </marker>
    <marker
       inkscape:stockid="Arrow1Lend"
       orient="auto"
       refY="0"
       refX="0"
       id="marker4194"
       style="overflow:visible">
      <path
         inkscape:connector-curvature="0"
         id="path4196"
         d="M 0,0 5,-5 -12.5,0 5,5 0,0 z"
         style="fill-rule:evenodd;stroke:#000000;stroke-width:1pt"
         transform="matrix(-0.8,0,0,-0.8,-10,0)" />
    </marker>
    <marker
       inkscape:stockid="Arrow1Lend"
       orient="auto"
       refY="0"
       refX="0"
       id="marker4198"
       style="overflow:visible">
      <path
         inkscape:connector-curvature="0"
         id="path4200"
         d="M 0,0 5,-5 -12.5,0 5,5 0,0 z"
         style="fill-rule:evenodd;stroke:#000000;stroke-width:1pt"
         transform="matrix(-0.8,0,0,-0.8,-10,0)" />
    </marker>
    <marker
       inkscape:stockid="Arrow1Lend"
       orient="auto"
       refY="0"
       refX="0"
       id="marker4202"
       style="overflow:visible">
      <path
         inkscape:connector-curvature="0"
         id="path4204"
         d="M 0,0 5,-5 -12.5,0 5,5 0,0 z"
         style="fill-rule:evenodd;stroke:#000000;stroke-width:1pt"
         transform="matrix(-0.8,0,0,-0.8,-10,0)" />
    </marker>
    <marker
       inkscape:stockid="Arrow1Lend"
       orient="auto"
       refY="0"
       refX="0"
       id="marker4206"
       style="overflow:visible">
      <path
         inkscape:connector-curvature="0"
         id="path4208"
         d="M 0,0 5,-5 -12.5,0 5,5 0,0 z"
         style="fill-rule:evenodd;stroke:#000000;stroke-width:1pt"
         transform="matrix(-0.8,0,0,-0.8,-10,0)" />
    </marker>
    <marker
       inkscape:stockid="Arrow1Lend"
       orient="auto"
       refY="0"
       refX="0"
       id="marker4210"
       style="overflow:visible">
      <path
         inkscape:connector-curvature="0"
         id="path4212"
         d="M 0,0 5,-5 -12.5,0 5,5 0,0 z"
         style="fill-rule:evenodd;stroke:#000000;stroke-width:1pt"
         transform="matrix(-0.8,0,0,-0.8,-10,0)" />
    </marker>
  </defs>
  <sodipodi:namedview
     id="base"
     pagecolor="#ffffff"
     bordercolor="#666666"
     borderopacity="1.0"
     inkscape:pageopacity="0.0"
     inkscape:pageshadow="2"
     inkscape:zoom="1"
     inkscape:cx="-93.203454"
     inkscape:cy="804.7562"
     inkscape:document-units="px"
     inkscape:current-layer="layer1"
     showgrid="false"
     inkscape:window-width="1210"
     inkscape:window-height="741"
     inkscape:window-x="147"
     inkscape:window-y="-9"
     inkscape:window-maximized="1" />
  <metadata
     id="metadata4793">
    <rdf:RDF>
      <cc:Work
         rdf:about="">
        <dc:format>image/svg+xml</dc:format>
        <dc:type
           rdf:resource="http://purl.org/dc/dcmitype/StillImage" />
        <dc:title></dc:title>
      </cc:Work>
    </rdf:RDF>
  </metadata>
  <g
     inkscape:label="Layer 1"
     inkscape:groupmode="layer"
     id="layer1">
    <path
       sodipodi:type="arc"
       style="fill:#00ff00;fill-opacity:0.19607843;stroke:none"
       id="path3996"
       sodipodi:cx="-45"
       sodipodi:cy="252.36218"
       sodipodi:rx="48"
       sodipodi:ry="48"
       d="m 3,252.36218 a 48,48 0 1 1 -96,0 48,48 0 1 1 96,0 z"
       transform="translate(1.9746175,4.4988043)" />
    <rect
       style="fill:#0000ff;fill-opacity:0.07843138;stroke:none"
       id="rect3891-1-9"
       width="92"
       height="92"
       x="565.10345"
       y="212.36218" />
    <rect
       style="fill:#0000ff;fill-opacity:0.07843138;stroke:none"
       id="rect3891-1-0"
       width="92"
       height="92"
       x="376.10345"
       y="207.36218" />
    <rect
       style="fill:#0000ff;fill-opacity:0.07843138;stroke:none"
       id="rect3891-1-4"
       width="92"
       height="92"
       x="131.10345"
       y="338.36218" />
    <rect
       style="fill:#0000ff;fill-opacity:0.07843138;stroke:none"
       id="rect3891-1-7"
       width="92"
       height="92"
       x="132.10345"
       y="165.36218" />
    <rect
       style="fill:#0000ff;fill-opacity:0.07843138;stroke:none"
       id="rect3891-1"
       width="92"
       height="92"
       x="133.10345"
       y="58.362183" />
    <flowRoot
       xml:space="preserve"
       id="flowRoot4809"
       style="font-size:16px;font-style:normal;font-weight:normal;text-align:center;line-height:125%;letter-spacing:0px;word-spacing:0px;text-anchor:middle;fill:#000000;fill-opacity:1;stroke:none;font-family:Sans"
       transform="translate(-137.04882,177.06603)"
       inkscape:export-xdpi="418"
       inkscape:export-ydpi="418"><flowRegion
         id="flowRegion4811"><rect
           id="rect4813"
           width="130.599"
           height="121.49747"
           x="28.446712"
           y="60.483757"
           style="font-size:16px;text-align:center;text-anchor:middle" /></flowRegion><flowPara
         id="flowPara3308">Entrada</flowPara><flowPara
         id="flowPara3315">(gesto)</flowPara></flowRoot>    <flowRoot
       xml:space="preserve"
       id="flowRoot4809-8"
       style="font-size:16px;font-style:normal;font-weight:normal;line-height:125%;letter-spacing:0px;word-spacing:0px;fill:#000000;fill-opacity:1;stroke:none;font-family:Sans"
       transform="translate(114.98291,25.1223)"><flowRegion
         id="flowRegion4811-7"><rect
           id="rect4813-4"
           width="59.598999"
           height="49.497475"
           x="44.446712"
           y="69.483757"
           style="font-size:16px" /></flowRegion><flowPara
         id="flowPara4815-2">Red 1</flowPara></flowRoot>    <flowRoot
       xml:space="preserve"
       id="flowRoot4809-8-7"
       style="font-size:16px;font-style:normal;font-weight:normal;line-height:125%;letter-spacing:0px;word-spacing:0px;fill:#000000;fill-opacity:1;stroke:none;font-family:Sans"
       transform="translate(113.93603,131.62482)"><flowRegion
         id="flowRegion4811-7-9"><rect
           id="rect4813-4-3"
           width="59.598999"
           height="49.497475"
           x="44.446712"
           y="69.483757"
           style="font-size:16px" /></flowRegion><flowPara
         id="flowPara4815-2-1">Red 2</flowPara></flowRoot>    <flowRoot
       xml:space="preserve"
       id="flowRoot4809-8-8"
       style="font-size:16px;font-style:normal;font-weight:normal;line-height:125%;letter-spacing:0px;word-spacing:0px;fill:#000000;fill-opacity:1;stroke:none;font-family:Sans"
       transform="translate(115.18994,305.8888)"><flowRegion
         id="flowRegion4811-7-6"><rect
           id="rect4813-4-5"
           width="59.598999"
           height="49.497475"
           x="44.446712"
           y="69.483757"
           style="font-size:16px" /></flowRegion><flowPara
         id="flowPara4815-2-0">Red r</flowPara></flowRoot>    <g
       id="g4077"
       transform="translate(-44.34969,112.77572)">
      <path
         d="m 65.714285,187.36218 c 0,1.97245 -1.598983,3.57143 -3.571428,3.57143 -1.972446,0 -3.571429,-1.59898 -3.571429,-3.57143 0,-1.97244 1.598983,-3.57143 3.571429,-3.57143 1.972445,0 3.571428,1.59899 3.571428,3.57143 z"
         sodipodi:ry="3.5714285"
         sodipodi:rx="3.5714285"
         sodipodi:cy="187.36218"
         sodipodi:cx="62.142857"
         id="path3858-23-8"
         style="fill:none;stroke:#000000;stroke-width:1.39999998;stroke-miterlimit:14.19999981;stroke-opacity:1;stroke-dasharray:none"
         sodipodi:type="arc"
         transform="translate(162.14286,-15.571429)" />
      <path
         d="m 65.714285,187.36218 c 0,1.97245 -1.598983,3.57143 -3.571428,3.57143 -1.972446,0 -3.571429,-1.59898 -3.571429,-3.57143 0,-1.97244 1.598983,-3.57143 3.571429,-3.57143 1.972445,0 3.571428,1.59899 3.571428,3.57143 z"
         sodipodi:ry="3.5714285"
         sodipodi:rx="3.5714285"
         sodipodi:cy="187.36218"
         sodipodi:cx="62.142857"
         id="path3858-23-2-5"
         style="fill:none;stroke:#000000;stroke-width:1.39999998;stroke-miterlimit:14.19999981;stroke-opacity:1;stroke-dasharray:none"
         sodipodi:type="arc"
         transform="translate(162.14286,-2.8571588)" />
      <path
         d="m 65.714285,187.36218 c 0,1.97245 -1.598983,3.57143 -3.571428,3.57143 -1.972446,0 -3.571429,-1.59898 -3.571429,-3.57143 0,-1.97244 1.598983,-3.57143 3.571429,-3.57143 1.972445,0 3.571428,1.59899 3.571428,3.57143 z"
         sodipodi:ry="3.5714285"
         sodipodi:rx="3.5714285"
         sodipodi:cy="187.36218"
         sodipodi:cx="62.142857"
         id="path3858-23-21-7"
         style="fill:none;stroke:#000000;stroke-width:1.39999998;stroke-miterlimit:14.19999981;stroke-opacity:1;stroke-dasharray:none"
         sodipodi:type="arc"
         transform="translate(162.14286,9.8571413)" />
    </g>
    <flowRoot
       xml:space="preserve"
       id="flowRoot4809-6"
       style="font-size:16px;font-style:normal;font-weight:normal;line-height:125%;letter-spacing:0px;word-spacing:0px;fill:#000000;fill-opacity:1;stroke:none;font-family:Sans"
       transform="translate(355.09708,177.61473)"><flowRegion
         id="flowRegion4811-0"><rect
           id="rect4813-2"
           width="83.842674"
           height="78.791901"
           x="33.335033"
           y="66.4533"
           style="font-size:16px" /></flowRegion><flowPara
         id="flowPara4815-4">Combinar</flowPara></flowRoot>    <path
       style="fill:none;stroke:#000000;stroke-width:1.14277756;stroke-linecap:butt;stroke-linejoin:miter;stroke-miterlimit:4;stroke-opacity:1;stroke-dasharray:none;marker-end:url(#Arrow1Lend)"
       d="m 476.09515,253.76049 80.44335,0.10449"
       id="path4105-9"
       inkscape:connector-type="polyline"
       inkscape:connector-curvature="0" />
    <path
       style="fill:none;stroke:#000000;stroke-width:1.40132248;stroke-linecap:butt;stroke-linejoin:miter;stroke-miterlimit:4;stroke-opacity:1;stroke-dasharray:none;marker-end:url(#Arrow1Lend)"
       d="m 11.24824,256.96631 100.36855,0.97945"
       id="path4105-9-9-3"
       inkscape:connector-type="polyline"
       inkscape:connector-curvature="0" />
    <path
       style="fill:none;stroke:#000000;stroke-width:2.27394009;stroke-linecap:butt;stroke-linejoin:miter;stroke-miterlimit:4;stroke-opacity:1;stroke-dasharray:none;marker-end:url(#Arrow1Lend)"
       d="m 226.953,373.01934 133.30094,-92.3143"
       id="path4105-9-9-3-6"
       inkscape:connector-type="polyline"
       inkscape:connector-curvature="0" />
    <path
       style="fill:none;stroke:#000000;stroke-width:2.06513596;stroke-linecap:butt;stroke-linejoin:miter;stroke-miterlimit:4;stroke-opacity:1;stroke-dasharray:none;marker-end:url(#Arrow1Lend)"
       d="m 243.02868,122.91792 115.14958,89.88854"
       id="path4105-9-9-3-6-8"
       inkscape:connector-type="polyline"
       inkscape:connector-curvature="0" />
    <path
       style="fill:none;stroke:#000000;stroke-width:2.00872159;stroke-linecap:butt;stroke-linejoin:miter;stroke-miterlimit:4;stroke-opacity:1;stroke-dasharray:none;marker-end:url(#Arrow1Lend)"
       d="m 227.81299,219.12277 132.74895,24.47935"
       id="path4105-9-9-3-6-6"
       inkscape:connector-type="polyline"
       inkscape:connector-curvature="0" />
    <flowRoot
       xml:space="preserve"
       id="flowRoot4809-6-5"
       style="font-size:16px;font-style:normal;font-weight:normal;text-align:center;line-height:125%;letter-spacing:0px;word-spacing:0px;text-anchor:middle;fill:#000000;fill-opacity:1;stroke:none;font-family:Sans"
       transform="translate(535.54097,172.25083)"><flowRegion
         id="flowRegion4811-0-2"><rect
           id="rect4813-2-7"
           width="83.842674"
           height="78.791901"
           x="33.335033"
           y="66.4533"
           style="font-size:16px;text-align:center;text-anchor:middle" /></flowRegion><flowPara
         id="flowPara4815-4-6">Asignar</flowPara><flowPara
         id="flowPara3188">Clase</flowPara><flowPara
         id="flowPara3241" /></flowRoot>    <path
       style="fill:none;stroke:#000000;stroke-width:1.14277756;stroke-linecap:butt;stroke-linejoin:miter;stroke-miterlimit:4;stroke-opacity:1;stroke-dasharray:none;marker-end:url(#Arrow1Lend)"
       d="m 667.88179,252.27848 80.44336,0.10449"
       id="path4105-9-3"
       inkscape:connector-type="polyline"
       inkscape:connector-curvature="0" />
    <g
       id="g4006"
       transform="translate(-22,2)">
      <path
         transform="matrix(0.85508262,0,0,0.85508262,197.13582,60.771145)"
         d="m 826,223.36218 c 0,19.88225 -32.2355,36 -72,36 -39.7645,0 -72,-16.11775 -72,-36 0,-19.88225 32.2355,-36 72,-36 39.7645,0 72,16.11775 72,36 z"
         sodipodi:ry="36"
         sodipodi:rx="72"
         sodipodi:cy="223.36218"
         sodipodi:cx="754"
         id="path3994"
         style="fill:#ff0000;fill-opacity:0.6;stroke:none"
         sodipodi:type="arc" />
      <flowRoot
         transform="translate(416.25972,-56.45428)"
         style="font-size:32px;font-style:normal;font-weight:normal;line-height:125%;letter-spacing:0px;word-spacing:0px;fill:#000000;fill-opacity:1;stroke:none;font-family:Sans;-inkscape-font-specification:Sans"
         id="flowRoot3037-5-2"
         xml:space="preserve"><flowRegion
           id="flowRegion3039-5-2"><rect
             style="font-size:32px;font-weight:normal;-inkscape-font-specification:Sans"
             y="288.36218"
             x="388"
             height="129"
             width="149"
             id="rect3041-1-1" /></flowRegion><flowPara
           style="font-size:18px"
           id="flowPara3043-7-6">Clase</flowPara><flowPara
           id="flowPara3317"
           style="font-size:18px">Estimada</flowPara></flowRoot>    </g>
    <rect
       style="fill:none;stroke:#000000;stroke-width:0.96483898;stroke-opacity:1"
       id="rect4080"
       width="118.03516"
       height="402.03516"
       x="120.08588"
       y="43.344604" />
  </g>
</svg>
